<svg width="276" height="64" viewBox="0 0 276 64" fill="none" xmlns="http://www.w3.org/2000/svg">
<path d="M4.91554 10.5452C4.91554 5.21001 8.42929 1.60001 13.6294 1.60001H50.6017C55.7993 1.60001 59.3156 5.20747 59.3156 10.5452V62.4L54.8523 57.0775V10.5452C54.8523 9.39156 54.4055 8.28505 53.6099 7.46858C52.8144 6.65212 51.7351 6.19242 50.6091 6.19041H13.6369C12.511 6.19309 11.4321 6.653 10.6367 7.46932C9.84133 8.28564 9.3943 9.39176 9.39365 10.5452V48.1323C9.39365 49.2859 9.84047 50.3924 10.636 51.2089C11.4315 52.0254 12.5108 52.4851 13.6369 52.4871H44.6523L49.0834 57.042L13.6294 57.0775C8.43176 57.0775 4.91554 53.47 4.91554 48.1323V10.5452Z" fill="#00925D"/>
<path d="M16.2279 24.3104V17.8627C16.2279 16.2706 16.8648 15.0288 18.1385 14.1373C19.4123 13.2458 21.1168 12.8 23.2522 12.8C25.4251 12.8 27.1483 13.2139 28.4221 14.0418C29.6958 14.8378 30.3327 15.8885 30.3327 17.194V23.1164C30.3327 23.6895 29.8457 24.0876 28.8716 24.3104C28.3472 24.4378 27.8227 24.5015 27.2982 24.5015C26.7737 24.5015 26.2492 24.4537 25.7248 24.3582C25.8371 23.594 25.8933 22.7821 25.8933 21.9224V17.8627C25.8933 17.2577 25.6498 16.796 25.1628 16.4776C24.6758 16.1274 24.0389 15.9522 23.2522 15.9522C22.4655 15.9522 21.8286 16.1274 21.3416 16.4776C20.8921 16.796 20.6673 17.2577 20.6673 17.8627V23.4507C20.6673 24.5652 21.0981 25.3453 21.9597 25.791L27.9163 29.0388C29.6022 29.9303 30.4451 31.2995 30.4451 33.1463V39.7373C30.4451 41.3293 29.7895 42.5711 28.4783 43.4627C27.1671 44.3542 25.4251 44.8 23.2522 44.8C21.1168 44.8 19.3935 44.402 18.0823 43.606C16.7711 42.7781 16.1155 41.7114 16.1155 40.406V34.4836C16.1155 33.9104 16.6026 33.5124 17.5766 33.2895C18.1011 33.1622 18.6256 33.0985 19.15 33.0985C19.6745 33.0985 20.199 33.1463 20.7235 33.2418C20.6111 34.006 20.5549 34.8179 20.5549 35.6776V39.7373C20.5549 40.3104 20.8171 40.7721 21.3416 41.1224C21.8661 41.4726 22.5217 41.6477 23.3084 41.6477C24.0951 41.6477 24.732 41.4726 25.219 41.1224C25.7435 40.7721 26.0057 40.3104 26.0057 39.7373V34.3403C26.0057 33.0985 25.5 32.207 24.4885 31.6657L18.5319 28.3701C16.9959 27.5423 16.2279 26.189 16.2279 24.3104Z" fill="white"/>
<path d="M33.8984 24.3104V17.8627C33.8984 16.2706 34.5353 15.0288 35.809 14.1373C37.0827 13.2458 38.7873 12.8 40.9227 12.8C43.0955 12.8 44.8188 13.2139 46.0925 14.0418C47.3663 14.8378 48.0032 15.8885 48.0032 17.194V23.1164C48.0032 23.6895 47.5161 24.0876 46.5421 24.3104C46.0176 24.4378 45.4931 24.5015 44.9687 24.5015C44.4442 24.5015 43.9197 24.4537 43.3952 24.3582C43.5076 23.594 43.5638 22.7821 43.5638 21.9224V17.8627C43.5638 17.2577 43.3203 16.796 42.8333 16.4776C42.3463 16.1274 41.7094 15.9522 40.9227 15.9522C40.136 15.9522 39.4991 16.1274 39.0121 16.4776C38.5625 16.796 38.3377 17.2577 38.3377 17.8627V23.4507C38.3377 24.5652 38.7686 25.3453 39.6302 25.791L45.5868 29.0388C47.2726 29.9303 48.1155 31.2995 48.1155 33.1463V39.7373C48.1155 41.3293 47.4599 42.5711 46.1487 43.4627C44.8375 44.3542 43.0955 44.8 40.9227 44.8C38.7873 44.8 37.064 44.402 35.7528 43.606C34.4416 42.7781 33.786 41.7114 33.786 40.406V34.4836C33.786 33.9104 34.273 33.5124 35.2471 33.2895C35.7715 33.1622 36.296 33.0985 36.8205 33.0985C37.345 33.0985 37.8695 33.1463 38.3939 33.2418C38.2815 34.006 38.2253 34.8179 38.2253 35.6776V39.7373C38.2253 40.3104 38.4876 40.7721 39.0121 41.1224C39.5365 41.4726 40.1921 41.6477 40.9789 41.6477C41.7656 41.6477 42.4025 41.4726 42.8895 41.1224C43.414 40.7721 43.6762 40.3104 43.6762 39.7373V34.3403C43.6762 33.0985 43.1704 32.207 42.1589 31.6657L36.2024 28.3701C34.6664 27.5423 33.8984 26.189 33.8984 24.3104Z" fill="white"/>
<path d="M13.8009 58.3973L13.8382 58.36H13.7715L13.8009 58.3973Z" fill="black"/>
<path d="M77.212 40.0508V45.7401C77.212 45.919 77.3014 46.0085 77.4802 46.0085H79.6261C79.805 46.0085 79.8944 45.919 79.8944 45.7401V36.0791L75.6562 34.2006C75.3344 34.0932 74.8873 33.9143 74.3151 33.6638C73.7428 33.3776 73.2242 32.9661 72.7593 32.4294C72.3301 31.8927 72.1155 31.1591 72.1155 30.2288V17.9915C72.1155 16.4887 72.5805 15.29 73.5104 14.3955C74.4402 13.4652 75.6562 13 77.1584 13H79.948C81.4501 13 82.6661 13.4652 83.596 14.3955C84.5259 15.29 84.9908 16.4887 84.9908 17.9915V25.935L79.8944 25.5057V18.2599C79.8944 18.081 79.805 17.9915 79.6261 17.9915H77.4802C77.3014 17.9915 77.212 18.081 77.212 18.2599V29.4774L81.4501 31.3559C81.772 31.4991 82.2191 31.6959 82.7913 31.9463C83.3635 32.1968 83.8642 32.5904 84.2934 33.1271C84.7584 33.6638 84.9908 34.3974 84.9908 35.3277V46.0085C84.9908 47.5113 84.5259 48.7279 83.596 49.6582C82.6661 50.5527 81.4501 51 79.948 51H77.1584C75.6562 51 74.4402 50.5527 73.5104 49.6582C72.5805 48.7279 72.1155 47.5113 72.1155 46.0085V40.0508H77.212Z" fill="white"/>
<path d="M96.8615 50.7853C95.2163 50.7853 93.893 50.3202 92.8916 49.3898C91.926 48.4237 91.4432 47.225 91.4432 45.7938V28.9407C91.4432 27.4736 91.926 26.275 92.8916 25.3446C93.893 24.4143 95.2163 23.9492 96.8615 23.9492H97.0761C98.0417 23.9492 98.9001 24.1817 99.6512 24.6469V23.9492H104.748V45.7938H105.499L106.035 50.7853H99.6512V48.6921L98.31 50.7853H96.8615ZM96.8079 28.9407C96.629 28.9407 96.5396 29.0301 96.5396 29.209V45.5254C96.5396 45.7043 96.629 45.7938 96.8079 45.7938H99.6512V28.9407H96.8079Z" fill="white"/>
<path d="M116.49 16.8107L117.026 21.8023H111.93V16.8107H116.49ZM117.026 23.9492V50.7853H111.93V28.9407H111.125L111.661 23.9492H117.026Z" fill="white"/>
<path d="M124.196 50.7853V28.9407H122.908L123.445 23.9492H129.292V26.0424L130.634 23.9492H132.082C133.727 23.9492 135.033 24.4143 135.998 25.3446C137 26.275 137.5 27.4736 137.5 28.9407V45.7938H138.842L138.305 50.7853H132.404V29.209C132.404 29.0301 132.315 28.9407 132.136 28.9407H129.292V50.7853H124.196Z" fill="white"/>
<path d="M153.587 45.7938V50.7853H150.475C148.973 50.7853 147.757 50.338 146.827 49.4435C145.897 48.5132 145.432 47.2966 145.432 45.7938V28.9407H143.179L143.608 23.9492H145.432V18.2062H144.091L144.52 13.2147H150.529V23.9492H153.587L153.157 28.9407H150.529V45.7938H153.587Z" fill="white"/>
<path d="M164.577 40.0508V45.7401C164.577 45.919 164.667 46.0085 164.845 46.0085H166.991C167.17 46.0085 167.259 45.919 167.259 45.7401V36.0791L163.021 34.2006C162.699 34.0932 162.252 33.9143 161.68 33.6638C161.108 33.3776 160.589 32.9661 160.124 32.4294C159.695 31.8927 159.481 31.1591 159.481 30.2288V17.9915C159.481 16.4887 159.946 15.29 160.875 14.3955C161.805 13.4652 163.021 13 164.523 13H167.313C168.815 13 170.031 13.4652 170.961 14.3955C171.891 15.29 172.356 16.4887 172.356 17.9915V25.935L167.259 25.5057V18.2599C167.259 18.081 167.17 17.9915 166.991 17.9915H164.845C164.667 17.9915 164.577 18.081 164.577 18.2599V29.4774L168.815 31.3559C169.137 31.4991 169.584 31.6959 170.156 31.9463C170.729 32.1968 171.229 32.5904 171.659 33.1271C172.123 33.6638 172.356 34.3974 172.356 35.3277V46.0085C172.356 47.5113 171.891 48.7279 170.961 49.6582C170.031 50.5527 168.815 51 167.313 51H164.523C163.021 51 161.805 50.5527 160.875 49.6582C159.946 48.7279 159.481 47.5113 159.481 46.0085V40.0508H164.577Z" fill="white"/>
<path d="M188.679 45.7938V50.7853H185.568C184.066 50.7853 182.85 50.338 181.92 49.4435C180.99 48.5132 180.525 47.2966 180.525 45.7938V28.9407H178.272L178.701 23.9492H180.525V18.2062H179.184L179.613 13.2147H185.621V23.9492H188.679L188.25 28.9407H185.621V45.7938H188.679Z" fill="white"/>
<path d="M200.421 23.9492V26.3107L201.869 23.9492H205.464V29.1554H200.421V50.7853H195.324V28.9407H194.037L194.573 23.9492H200.421Z" fill="white"/>
<path d="M211.386 46.0085V28.726C211.386 27.2232 211.851 26.0245 212.781 25.1299C213.711 24.1996 214.927 23.7345 216.429 23.7345H219.755C221.257 23.7345 222.473 24.1996 223.403 25.1299C224.333 26.0245 224.798 27.2232 224.798 28.726V35.3277H219.702V28.9944C219.702 28.8154 219.612 28.726 219.433 28.726H216.751C216.572 28.726 216.483 28.8154 216.483 28.9944V35.3277H224.798V40.3192H216.483V45.7401C216.483 45.919 216.572 46.0085 216.751 46.0085H219.433C219.612 46.0085 219.702 45.9369 219.702 45.7938V42.8418H224.798V46.0085C224.798 47.5113 224.333 48.7279 223.403 49.6582C222.473 50.5527 221.257 51 219.755 51H216.429C214.927 51 213.711 50.5527 212.781 49.6582C211.851 48.7279 211.386 47.5113 211.386 46.0085Z" fill="white"/>
<path d="M236.918 50.7853C235.273 50.7853 233.95 50.3202 232.948 49.3898C231.983 48.4237 231.5 47.225 231.5 45.7938V28.9407C231.5 27.4736 231.983 26.275 232.948 25.3446C233.95 24.4143 235.273 23.9492 236.918 23.9492H237.133C238.098 23.9492 238.957 24.1817 239.708 24.6469V23.9492H244.804V45.7938H245.555L246.092 50.7853H239.708V48.6921L238.367 50.7853H236.918ZM236.864 28.9407C236.686 28.9407 236.596 29.0301 236.596 29.209V45.5254C236.596 45.7043 236.686 45.7938 236.864 45.7938H239.708V28.9407H236.864Z" fill="white"/>
<path d="M265.773 50.7853H260.677V29.209C260.677 29.0301 260.588 28.9407 260.409 28.9407H257.565V50.7853H252.469V28.9407H251.181L251.718 23.9492H257.565V26.0424L258.907 23.9492H260.355C261.535 23.9492 262.555 24.1996 263.413 24.7006C264.271 25.2015 264.897 25.8814 265.291 26.7401L267.115 23.9492H268.563C270.208 23.9492 271.514 24.4143 272.479 25.3446C273.481 26.275 273.981 27.4736 273.981 28.9407V45.7938H275.269L274.733 50.7853H268.885V29.209C268.885 29.0301 268.796 28.9407 268.617 28.9407H265.773V50.7853Z" fill="white"/>
</svg>
